<svg width="110" height="24" viewBox="0 0 110 24" fill="none" xmlns="http://www.w3.org/2000/svg">
<g clip-path="url(#clip0_2130_1563)">
<path d="M36.96 12C36.96 5.37258 31.5874 0 24.96 0H0V24H24.96C31.5874 24 36.96 18.6274 36.96 12Z" fill="#E62020"/>
<path d="M88.7963 13.2936C89.9075 13.2936 90.9921 12.5151 90.9921 11.018C90.9921 9.5075 89.9141 8.72898 88.7963 8.72898H87.3124V13.2936H88.7963ZM88.1043 12.5683V9.45427H88.7963C89.4883 9.45427 90.1936 10.0265 90.1936 11.018C90.1936 11.9961 89.4883 12.5683 88.7963 12.5683H88.1043Z" fill="#E62020"/>
<path d="M93.2286 13.3668C93.7742 13.3668 94.3797 13.114 94.6525 12.5949L94.1535 12.2157C93.9605 12.5284 93.6278 12.6881 93.3018 12.6881C92.8892 12.6881 92.4633 12.4219 92.3635 11.863H94.8455L94.8521 11.6168C94.8521 10.3858 94.0403 9.88678 93.2685 9.88678C92.3702 9.88678 91.605 10.5588 91.605 11.6235C91.605 12.7613 92.3902 13.3668 93.2286 13.3668ZM92.3768 11.2841C92.4833 10.8117 92.8227 10.5256 93.2485 10.5256C93.6012 10.5256 93.9738 10.7185 94.0736 11.2841H92.3768Z" fill="#E62020"/>
<path d="M95.9744 12.1358L95.4687 12.5617C95.7681 13.114 96.3536 13.3668 96.9126 13.3668C97.6046 13.3668 98.2434 13.0008 98.2434 12.3421C98.2434 11.2375 96.367 11.2974 96.367 10.8583C96.367 10.6919 96.5998 10.5721 96.8793 10.5721C97.1588 10.5721 97.4915 10.6853 97.6844 10.998L98.2101 10.6054C97.9306 10.1064 97.3983 9.88678 96.8993 9.88678C96.2272 9.88678 95.6017 10.2727 95.6017 10.9181C95.6017 12.0294 97.4782 11.9429 97.4782 12.402C97.4782 12.575 97.2253 12.6814 96.9126 12.6814C96.5932 12.6814 96.2006 12.5617 95.9744 12.1358Z" fill="#E62020"/>
<path d="M98.9501 13.2936H99.7153V9.96662H98.9501V13.2936ZM98.8836 9.42765H99.7818V8.52936H98.8836V9.42765Z" fill="#E62020"/>
<path d="M102.103 14.6577C102.922 14.6577 103.76 14.1187 103.76 13.094V10.3193C103.241 10.0132 102.762 9.88678 102.323 9.88678C101.351 9.88678 100.546 10.4923 100.546 11.6501C100.546 12.728 101.238 13.2936 101.944 13.2936C102.383 13.2936 102.795 13.0807 103.035 12.5883V13.1605C103.035 13.7461 102.556 14.0056 102.13 14.0056C101.764 14.0056 101.458 13.8259 101.272 13.5731L100.759 13.9723C101.039 14.4048 101.538 14.6577 102.103 14.6577ZM101.311 11.6235C101.311 10.9115 101.791 10.6054 102.35 10.6054C102.549 10.6054 102.789 10.652 102.995 10.7851V11.8963C102.942 12.3621 102.562 12.6149 102.176 12.6149C101.757 12.6149 101.311 12.3022 101.311 11.6235Z" fill="#E62020"/>
<path d="M104.603 13.2936H105.368V11.5436C105.368 10.9248 105.78 10.6121 106.166 10.6121C106.512 10.6121 106.845 10.8583 106.845 11.3906V13.2936H107.61V11.2043C107.61 10.3126 107.018 9.88678 106.432 9.88678C105.94 9.88678 105.468 10.1729 105.321 10.7252L105.361 9.96662H104.603V13.2936Z" fill="#E62020"/>
<path d="M88.8295 20.0075C89.6546 20.0075 90.4598 19.5351 90.4598 18.6834C90.4598 17.286 88.1109 17.3526 88.1109 16.5075C88.1109 16.1815 88.4569 15.9952 88.8295 15.9952C89.1889 15.9952 89.5282 16.1748 89.6679 16.5741L90.3466 16.3079C90.1337 15.6292 89.4683 15.2965 88.8096 15.2965C88.051 15.2965 87.3124 15.729 87.3124 16.5474C87.3124 18.0047 89.6679 17.8849 89.6679 18.7433C89.6679 19.0959 89.2621 19.3155 88.8362 19.3155C88.4103 19.3155 87.9645 19.0826 87.8314 18.5769L87.1527 18.8364C87.3657 19.6349 88.1043 20.0075 88.8295 20.0075Z" fill="#E62020"/>
<path d="M92.4411 21.305C93.2596 21.305 94.0714 20.7195 94.0714 19.6881V16.6073H93.3062V18.2642C93.3062 18.8763 92.9269 19.1957 92.5476 19.1957C92.2083 19.1957 91.9288 18.9495 91.9288 18.3839V16.6073H91.1636V18.6035C91.1636 19.5018 91.7026 19.9144 92.2881 19.9144C92.8271 19.9144 93.1997 19.555 93.3261 19.1491V19.7414C93.3261 20.3469 92.8404 20.5931 92.4278 20.5931C92.1018 20.5931 91.809 20.4334 91.6626 20.1539L91.0904 20.5465C91.3432 21.0722 91.9421 21.305 92.4411 21.305Z" fill="#E62020"/>
<path d="M95.2141 18.7765L94.7084 19.2024C95.0078 19.7547 95.5934 20.0075 96.1523 20.0075C96.8443 20.0075 97.4831 19.6415 97.4831 18.9828C97.4831 17.8782 95.6067 17.9381 95.6067 17.499C95.6067 17.3326 95.8396 17.2128 96.119 17.2128C96.3985 17.2128 96.7312 17.326 96.9242 17.6387L97.4498 17.2461C97.1704 16.7471 96.638 16.5275 96.139 16.5275C95.4669 16.5275 94.8415 16.9134 94.8415 17.5588C94.8415 18.6701 96.7179 18.5836 96.7179 19.0427C96.7179 19.2157 96.465 19.3222 96.1523 19.3222C95.8329 19.3222 95.4403 19.2024 95.2141 18.7765Z" fill="#E62020"/>
<path d="M99.5406 20.0142C99.7735 20.0142 100.026 19.9543 100.292 19.8412L100.126 19.229C99.9465 19.3022 99.7934 19.3355 99.6737 19.3355C99.3676 19.3355 99.2279 19.1092 99.2279 18.7433V17.2528H99.9265V16.6073H99.1879L99.2279 15.8288H98.4626V16.6073H97.9237V17.2528H98.4626V18.8031C98.4626 19.595 98.9018 20.0142 99.5406 20.0142Z" fill="#E62020"/>
<path d="M102.397 20.0075C102.943 20.0075 103.548 19.7547 103.821 19.2357L103.322 18.8564C103.129 19.1691 102.797 19.3288 102.47 19.3288C102.058 19.3288 101.632 19.0626 101.532 18.5037H104.014L104.021 18.2575C104.021 17.0265 103.209 16.5275 102.437 16.5275C101.539 16.5275 100.774 17.1995 100.774 18.2642C100.774 19.402 101.559 20.0075 102.397 20.0075ZM101.546 17.9248C101.652 17.4524 101.991 17.1663 102.417 17.1663C102.77 17.1663 103.143 17.3592 103.242 17.9248H101.546Z" fill="#E62020"/>
<path d="M104.817 19.9343H105.582V18.1843C105.582 17.5655 105.922 17.2528 106.308 17.2528C106.607 17.2528 106.913 17.4457 106.913 18.018V19.9343H107.678V18.1843C107.678 17.5655 108.024 17.2528 108.404 17.2528C108.71 17.2528 109.009 17.4457 109.009 18.0047V19.9343H109.774V17.8317C109.774 16.94 109.249 16.5275 108.663 16.5275C108.117 16.5275 107.745 16.8934 107.612 17.3459C107.459 16.787 107.026 16.5275 106.567 16.5275C105.995 16.5275 105.642 16.9267 105.536 17.3592L105.576 16.6073H104.817V19.9343Z" fill="#E62020"/>
<path d="M50.9248 20.9081C52.581 20.9081 54.2373 20.0649 55.0654 18.3784L54.9902 20.6271H58.2525V2.48408H54.8396L54.9651 8.28472C54.0616 7.77365 53.0327 7.51812 52.0039 7.51812C48.8168 7.51812 45.6548 9.92014 45.6548 14.4942C45.6548 18.6594 48.2145 20.9081 50.9248 20.9081ZM49.0677 14.3153C49.0677 12.4755 50.2723 10.789 52.3301 10.789C53.3088 10.789 54.1871 11.1467 54.8396 11.8367V15.823C54.3879 16.9218 53.3841 17.6373 52.054 17.6373C50.0715 17.6373 49.0677 16.0019 49.0677 14.3153Z" fill="#E62020"/>
<path d="M63.6692 20.9081C65.5011 20.9081 67.1825 19.9627 67.9604 17.8928L67.7848 20.6271H71.1977V13.0121C71.1977 9.35797 68.5627 7.54367 65.6266 7.54367C63.5186 7.54367 61.3605 8.48915 60.1559 10.7123L62.9665 12.0155C63.4684 11.0956 64.422 10.6101 65.4007 10.6101C66.5551 10.6101 67.7346 11.3256 67.7848 12.961C67.057 12.8588 66.3543 12.8332 65.7521 12.8332C61.9125 12.8332 59.6791 14.2387 59.6791 17.0496C59.6791 19.5027 61.4608 20.9081 63.6692 20.9081ZM63.2426 16.7174C63.2426 15.9763 63.9452 15.2864 65.9528 15.2864C66.4798 15.2864 67.1072 15.3375 67.7597 15.4141C67.584 17.2284 66.254 18.0206 65.0494 18.0206C64.0205 18.0206 63.2426 17.484 63.2426 16.7174Z" fill="#E62020"/>
<path d="M73.6497 2.48408V20.6271H77.0626V2.48408H73.6497Z" fill="#E62020"/>
<path d="M79.6819 7.85031V20.6271H83.0948V7.85031H79.6819ZM79.4561 5.9338H83.3207V2.07522H79.4561V5.9338Z" fill="#E62020"/>
</g>
<defs>
<clipPath id="clip0_2130_1563">
<rect width="110" height="24" fill="white"/>
</clipPath>
</defs>
</svg>
